<svg width="68.000000" height="71.000000" viewBox="0 0 68 71" fill="none" xmlns="http://www.w3.org/2000/svg" xmlns:xlink="http://www.w3.org/1999/xlink">
	<desc>
			Created with Pixso.
	</desc>
	<defs>
		<clipPath id="clip23_163">
			<rect id="фрейм 1" width="68.000000" height="71.000000" fill="white" fill-opacity="0"/>
		</clipPath>
	</defs>
	<g clip-path="url(#clip23_163)">
		<path id="Subtract" d="M-473.998 0L1412 0C1417.52 0 1422 4.47716 1422 10L1422 95C1421.48 81.6565 1410.47 71 1397 71L1140.65 71C1135.58 71 1131.43 67.1689 1129.94 62.3276C1123.67 41.8731 1104.64 27 1082.13 27L63.3469 27C40.8383 27 21.8036 41.8731 15.5343 62.3276C14.0504 67.1689 9.89142 71 4.82788 71L-459 71C-472.472 71 -483.455 81.6565 -483.98 95L-483.998 10.0021C-483.998 4.47841 -479.522 0 -473.998 0Z" clip-rule="evenodd" fill="#7027E2" fill-opacity="1.000000" fill-rule="evenodd"/>
	</g>
</svg>
