<svg width="68.000000" height="71.000000" viewBox="0 0 68 71" fill="none" xmlns="http://www.w3.org/2000/svg" xmlns:xlink="http://www.w3.org/1999/xlink">
	<desc>
			Created with Pixso.
	</desc>
	<defs>
		<clipPath id="clip23_163">
			<rect id="фрейм 1" width="68.000000" height="71.000000" fill="white" fill-opacity="0"/>
		</clipPath>
	</defs>
	<g clip-path="url(#clip23_163)">
		<path id="Subtract" d="M-1555 0L331 0C336.523 0 341 4.47716 341 10L341 95C340.475 81.6565 329.472 71 316 71L59.6482 71C54.5846 71 50.4257 67.1689 48.9419 62.3276C42.6726 41.8731 23.6377 27 1.12915 27L-1017.65 27C-1040.16 27 -1059.2 41.8731 -1065.47 62.3276C-1066.95 67.1689 -1071.11 71 -1076.17 71L-1540 71C-1553.47 71 -1564.46 81.6565 -1564.98 95L-1565 10.0021C-1565 4.47841 -1560.52 0 -1555 0Z" clip-rule="evenodd" fill="#7027E2" fill-opacity="1.000000" fill-rule="evenodd"/>
	</g>
</svg>
