<svg width="26.000000" height="24.000000" viewBox="0 0 26 24" fill="none" xmlns="http://www.w3.org/2000/svg" xmlns:xlink="http://www.w3.org/1999/xlink">
	<desc>
			Created with Pixso.
	</desc>
	<defs>
		<clipPath id="clip23_163">
			<rect id="фрейм 1" width="26.000000" height="24.000000" fill="white" fill-opacity="0"/>
		</clipPath>
	</defs>
	<g clip-path="url(#clip23_163)">
		<path id="Subtract" d="M-1884 -71L16 -71C21.5228 -71 26 -66.5228 26 -61L26 24C25.4751 10.6565 14.4722 0 1 0L-257.481 0C-262.545 0 -266.704 -3.83116 -268.188 -8.67239C-274.457 -29.1269 -293.492 -44 -316 -44L-1343 -44C-1365.51 -44 -1384.54 -29.1269 -1390.81 -8.67237C-1392.3 -3.83113 -1396.46 0 -1401.52 0L-1869 0C-1882.47 0 -1893.46 10.6565 -1893.98 24L-1894 -60.9979C-1894 -66.5216 -1889.52 -71 -1884 -71Z" clip-rule="evenodd" fill="#7027E2" fill-opacity="1.000000" fill-rule="evenodd"/>
	</g>
</svg>
